<svg xmlns="http://www.w3.org/2000/svg" xmlns:xlink="http://www.w3.org/1999/xlink" viewBox="0 0 71.28 71.28"><defs><style>.cls-1{fill:url(#未命名的渐变_90);}.cls-2{fill:none;stroke:#fff;stroke-linecap:round;stroke-linejoin:round;stroke-width:1.4px;}</style><linearGradient id="未命名的渐变_90" x1="36.85" y1="-22.33" x2="35.22" y2="55.56" gradientUnits="userSpaceOnUse"><stop offset="0" stop-color="#f9cba9"/><stop offset="1" stop-color="#ed777d"/></linearGradient></defs><title>footer-book</title><g id="图层_2" data-name="图层 2"><g id="图层_1-2" data-name="图层 1"><g id="_编组_" data-name="&lt;编组&gt;"><circle id="_路径_" data-name="&lt;路径&gt;" class="cls-1" cx="35.64" cy="35.64" r="35.64"/><g id="_编组_2" data-name="&lt;编组&gt;"><path id="_路径_2" data-name="&lt;路径&gt;" class="cls-2" d="M35.64,16.94a18.7,18.7,0,1,1-18.7,18.7,18.7,18.7,0,0,1,18.7-18.7Z"/><line id="_路径_3" data-name="&lt;路径&gt;" class="cls-2" x1="46.34" y1="26.63" x2="37.34" y2="35.63"/><line id="_路径_4" data-name="&lt;路径&gt;" class="cls-2" x1="33.73" y1="36.04" x2="26.89" y2="32.1"/><path id="_路径_5" data-name="&lt;路径&gt;" class="cls-2" d="M35.64,34.8a2.11,2.11,0,1,0,2.11,2.11,2.11,2.11,0,0,0-2.11-2.11Z"/><line id="_路径_6" data-name="&lt;路径&gt;" class="cls-2" x1="35.64" y1="21.43" x2="35.64" y2="22.75"/><line id="_路径_7" data-name="&lt;路径&gt;" class="cls-2" x1="21.43" y1="35.64" x2="22.75" y2="35.64"/><line id="_路径_8" data-name="&lt;路径&gt;" class="cls-2" x1="35.64" y1="49.84" x2="35.64" y2="48.53"/><line id="_路径_9" data-name="&lt;路径&gt;" class="cls-2" x1="49.84" y1="35.64" x2="48.53" y2="35.64"/></g></g></g></g></svg>