<?xml version="1.0" standalone="no"?><!DOCTYPE svg PUBLIC "-//W3C//DTD SVG 1.1//EN" "http://www.w3.org/Graphics/SVG/1.1/DTD/svg11.dtd">
<svg class="icon" style="" viewBox="0 0 1024 1024" version="1.1" xmlns="http://www.w3.org/2000/svg" p-id="2371" xmlns:xlink="http://www.w3.org/1999/xlink" width="200" height="200">
	<defs>
		<style type="text/css"><![CDATA[]]></style>
	</defs>
	<path d="M832 341.504l0-42.496c0-23.552-18.944-42.496-42.496-42.496L234.496 256.512c-23.552 0-42.496 18.944-42.496 42.496l0 42.496c0 11.776-9.728 21.504-21.504 21.504l0 0c-11.776 0-21.504-9.728-21.504-21.504l0-42.496c0-47.104 38.4-85.504 85.504-85.504l106.496 0 0-42.496c0-23.552 18.944-42.496 42.496-42.496l256 0c23.552 0 42.496 18.944 42.496 42.496l0 42.496 106.496 0c47.104 0 85.504 38.4 85.504 85.504l0 42.496c0 11.776-9.728 21.504-21.504 21.504l0 0C841.728 362.496 832 353.28 832 341.504zM631.296 170.496 392.704 170.496c-4.608 0-8.704 4.096-8.704 8.704l0 33.792 256 0L640 179.2C640 174.592 635.904 170.496 631.296 170.496zM448 426.496 448 768l-42.496 0L405.504 426.496c0-11.776 9.728-21.504 21.504-21.504l0 0C438.272 405.504 448 414.72 448 426.496zM618.496 426.496 618.496 768l-42.496 0L576 426.496c0-11.776 9.728-21.504 21.504-21.504l0 0C609.28 405.504 618.496 414.72 618.496 426.496zM277.504 810.496c0 23.552 18.944 42.496 42.496 42.496l384 0c23.552 0 42.496-18.944 42.496-42.496L746.496 384c0-11.776 9.728-21.504 21.504-21.504l0 0c11.776 0 21.504 9.728 21.504 21.504l0 426.496c0 47.104-38.4 85.504-85.504 85.504l-384 0c-47.104 0-85.504-38.4-85.504-85.504L234.496 384c0-11.776 9.728-21.504 21.504-21.504l0 0c11.776 0 21.504 9.728 21.504 21.504L277.504 810.496z" p-id="2372" fill="#999999"></path>
</svg>