<?xml version="1.0" standalone="no"?><!DOCTYPE svg PUBLIC "-//W3C//DTD SVG 1.1//EN" "http://www.w3.org/Graphics/SVG/1.1/DTD/svg11.dtd"><svg class="icon" style="" viewBox="0 0 1024 1024" version="1.1" xmlns="http://www.w3.org/2000/svg" p-id="6793" xmlns:xlink="http://www.w3.org/1999/xlink" width="200" height="200"><defs><style type="text/css"><![CDATA[

]]></style></defs><path d="M63.935 511.386c0.027-246.808 201.187-447.208 447.586-447.037 246.808 0.174 447.018 201.647 447.061 447.331 0.042 242.525-195.837 446.89-447.366 447.176-246.971 0.277-447.308-200.658-447.28-447.47v0zM255.894 806.752c132.145 120.19 369.738 141.609 530.501-17.718 160.679-159.242 142.095-397.368 20.727-532.692-66.616 65.831-133.247 131.675-199.878 197.517 0.428 0.552 0.858 1.102 1.286 1.653 1.498 0.074 2.997 0.204 4.5 0.204 12.553 0.020 25.108-0.135 37.657 0.062 13.388 0.208 23.868 8.147 27.213 20.201 5.103 18.379-8.111 35.474-27.938 35.606-30.511 0.202-61.026 0.189-91.537-0.066-5.466-0.047-9.247 1.568-13.176 5.35-4.55 4.384-6.648 8.888-6.169 15.2 0.499 6.528 0.112 13.126 0.112 19.692v15.671h7.289c34.374 0 68.752 0.036 103.126-0.016 10.908-0.016 19.568 4.195 25.269 13.542 11.36 18.625-1.758 42.041-23.841 42.2-34.76 0.251-69.524 0.077-104.284 0.081h-7.563v7.347c0 34.18-0.066 68.364 0.042 102.546 0.027 8.32-2.055 15.737-8.111 21.558-8.575 8.239-18.667 10.545-29.889 6.342-10.993-4.121-17.834-14.253-17.869-26.626-0.097-34.76-0.036-69.524-0.038-104.284v-6.884c-13.361 0-25.71 0.202-38.047-0.105-4.473-0.112-7.513 1.406-10.587 4.484-58.237 58.381-116.568 116.671-174.874 174.986-1.337 1.348-2.611 2.762-3.921 4.145v0zM470.589 513.062c-0.22-0.475-0.441-0.947-0.656-1.421h-6.234c-30.125 0-60.246 0.050-90.371-0.027-13.207-0.031-23.497-6.829-27.769-18.004-7.131-18.656 6.28-37.684 27.042-37.827 30.7-0.217 61.404-0.058 92.109-0.062h7.274c-2.584-2.716-3.99-4.261-5.469-5.74-36.858-36.873-73.726-73.738-110.584-110.611-1.773-1.773-3.593-3.522-5.203-5.438-13.059-15.555-5.941-39.137 13.592-44.703 11.561-3.295 21.079 0.468 29.387 8.807 37.479 37.614 75.082 75.113 112.577 112.713 1.618 1.623 2.631 3.847 4.647 6.876 2.642-3.353 3.802-5.172 5.288-6.663 37.248-37.305 74.523-74.576 111.804-111.847 16.923-16.918 35.668-14.702 48.392 5.678 0.193 0.309 0.571 0.499 0.548 0.479 29.904-29.902 59.774-59.774 89.629-89.629-141.621-125.463-381.152-136.719-536.813 24.987-154.305 160.297-133.3 394.475-14.613 525.318 48.349-48.345 96.737-96.728 145.016-145.005 0.193 0.112-0.305-0.177-0.803-0.459-12.45-7.088-18.081-19.31-14.794-32.11 3.26-12.705 14.253-20.828 28.468-20.924 9.846-0.066 19.758-0.703 29.526 0.177 9.761 0.878 16.447-2.584 23.041-9.583 14.535-15.419 29.928-30.036 44.969-44.98v0z" p-id="6794" fill="#e9606d"></path></svg>