<?xml version="1.0" standalone="no"?><!DOCTYPE svg PUBLIC "-//W3C//DTD SVG 1.1//EN" "http://www.w3.org/Graphics/SVG/1.1/DTD/svg11.dtd"><svg class="icon" style="" viewBox="0 0 1024 1024" version="1.1" xmlns="http://www.w3.org/2000/svg" p-id="5836" xmlns:xlink="http://www.w3.org/1999/xlink" width="200" height="200"><defs><style type="text/css"><![CDATA[

]]></style></defs><path d="M191.8976 351.9488c28.7744 35.4304 58.7776 78.4384 132.4032 78.4384 76.1856 0 103.5264-43.1104 132.4032-78.4384-37.376 19.968-82.944 31.8464-132.4032 31.8464C275.0464 383.6928 229.2736 371.9168 191.8976 351.9488zM512 20.48c-271.4624 0-491.52 220.0576-491.52 491.52s220.0576 491.52 491.52 491.52 491.52-220.0576 491.52-491.52S783.5648 20.48 512 20.48zM512 960c-247.3984 0-447.8976-200.4992-447.8976-447.8976S264.704 64.1024 512 64.1024s447.8976 200.4992 447.8976 447.8976S759.3984 960 512 960zM699.4944 383.6928c-49.3568 0-95.1296-11.776-132.4032-31.8464 28.7744 35.4304 58.7776 78.4384 132.4032 78.4384 76.1856 0 103.5264-43.1104 132.4032-78.4384C794.624 371.9168 749.056 383.6928 699.4944 383.6928zM513.8432 785.5104c-20.1728 0-39.8336-8.8064-57.2416-25.7024-23.552-22.8352-50.176-29.7984-79.5648-20.6848-22.3232 6.9632-38.2976 20.8896-38.4 21.0944l-19.3536-21.0944c0.9216-0.7168 20.3776-18.432 49.152-27.3408 27.5456-8.6016 68.5056-10.5472 107.8272 27.5456 32.8704 31.8464 61.1328 13.7216 75.0592 0 10.3424-10.1376 32.3584-28.0576 61.8496-32.5632 31.4368-4.8128 62.0544 5.9392 90.9312 32.1536l-19.1488 21.2992c-51.6096-46.6944-93.4912-20.1728-113.664-0.3072-15.7696 15.36-33.9968 24.1664-52.736 25.6C517.2224 785.3056 515.584 785.5104 513.8432 785.5104z" p-id="5837" fill="#EEEEEE"></path></svg>