<?xml version="1.0" standalone="no"?><!DOCTYPE svg PUBLIC "-//W3C//DTD SVG 1.1//EN" "http://www.w3.org/Graphics/SVG/1.1/DTD/svg11.dtd"><svg t="1481188169055" class="icon" style="" viewBox="0 0 1024 1024" version="1.1" xmlns="http://www.w3.org/2000/svg" p-id="2046" xmlns:xlink="http://www.w3.org/1999/xlink" width="200" height="200"><defs><style type="text/css"></style></defs><path d="M777.8284 529.282562l-69.718942 0L708.109458 376.353357l58.474147 0c20.977714-14.970355 20.977714-29.236466 0-42.730219l-83.211479 0c8.995836-10.471221 20.977714-30.711851 35.983342-60.72189 2.986043-11.983095-0.773574-20.977714-11.244794-26.987507-12.017152-4.499134-21.012987-1.476601-26.98629 8.995836-17.992887 32.997299-33.7356 59.246505-47.228137 78.713561l-74.21686 0c2.98726-5.973303 1.476601-14.232054-4.497918-24.738548-4.497918-7.485177-9.769409-16.481013-15.742712-26.987507-6.008576-11.983095-11.244794-20.978931-15.742712-26.987507-8.995836-11.983095-19.502329-14.232054-31.485424-6.746877-12.017152 8.995836-14.266111 19.502329-6.748093 31.485424 11.984311 16.51507 23.96619 34.506741 35.984559 53.975013l-71.967901 0c-22.489589 13.493753-22.489589 27.76108 0 42.730219l51.726054 0 0 152.929205-60.72189 0c-12.017152 0-17.991671 6.748093-17.991671 20.24063 0 15.005628 5.973303 22.490805 17.991671 22.490805l56.223972 0c-6.008576 61.495464-28.498165 118.457737-67.468767 170.920876-8.995836 11.983095-7.52045 22.490805 4.497918 31.485424 13.493753 5.973303 25.476849 2.98726 35.984559-8.995836 38.969386-56.962273 62.969633-121.444996 71.966684-193.411681l121.44378 0 0 188.912547c0 14.970355 7.485177 23.22789 22.490805 24.739764 14.969138-1.510658 22.489589-9.769409 22.489589-24.739764L708.111891 572.012781l69.718942 0C800.317989 557.042426 800.317989 542.776315 777.8284 529.282562zM663.130281 529.282562l-116.945862 0L546.184418 376.353357l116.945862 0L663.130281 529.282562zM420.241504 495.548179c-7.519234-10.471221-17.25337-11.983095-29.235249-4.497918-8.995836 6.008576-14.267327 8.995836-15.742712 8.995836 1.475385 0 0 0.773574-4.499134 2.248959l0-114.696903 35.984559 0c10.471221-1.475385 16.479797-9.734136 17.991671-24.738548-1.510658-13.493753-7.52045-20.978931-17.991671-22.490805l-35.984559 0 0-87.709397c0-11.983095-7.519234-17.991671-22.489589-17.991671-15.005628 0-22.489589 6.008576-22.489589 17.991671l0 87.709397-49.477096 0c-10.50771 1.510658-15.742712 8.995836-15.742712 22.490805 0 15.004412 5.235002 23.263163 15.742712 24.738548l49.477096 0 0 139.436667c-21.014204 10.506494-41.254834 18.765245-60.72189 24.739764-13.493753 6.008576-19.502329 15.741496-17.991671 29.235249 5.973303 15.005628 15.742712 20.241846 29.236466 15.742712 23.964974-8.995836 40.48126-16.479797 49.477096-22.489589l0 139.436667c1.475385 16.479797-12.018368 21.716015-40.482476 15.742712-13.493753-3.022533-21.751288 2.248959-24.738548 15.741496 0 14.970355 5.973303 23.96619 17.991671 26.987507 62.970849 13.493753 93.6827-6.008576 92.207314-58.472931l0-159.677298c4.499134-1.476601 11.983095-5.973303 22.490805-13.493753 8.995836-7.485177 15.742712-11.983095 20.24063-13.493753C423.965848 518.037767 426.214807 507.56533 420.241504 495.548179zM512 32.870803c-264.615738 0-479.129197 214.513459-479.129197 479.129197S247.384262 991.129197 512 991.129197s479.129197-214.513459 479.129197-479.129197S776.615738 32.870803 512 32.870803zM512 940.513635c-236.661265 0-428.514851-191.851154-428.514851-428.513635S275.338735 83.486365 512 83.486365s428.514851 191.851154 428.514851 428.513635S748.661265 940.513635 512 940.513635z" p-id="2047" fill="#ffffff"></path></svg>