<?xml version="1.0" standalone="no"?><!DOCTYPE svg PUBLIC "-//W3C//DTD SVG 1.1//EN" "http://www.w3.org/Graphics/SVG/1.1/DTD/svg11.dtd"><svg class="icon" style="" viewBox="0 0 1000 1000" version="1.1" xmlns="http://www.w3.org/2000/svg" p-id="5007" xmlns:xlink="http://www.w3.org/1999/xlink" width="200" height="200"><defs><style type="text/css"><![CDATA[

]]></style></defs><path d="M864.5282 808.5048l-251.3122-236.0699c37.3832-41.6028 61.5808-95.5942 65.4794-155.7374 9.2241-142.2945-98.6553-265.1252-240.9558-274.349-142.3005-9.2237-265.1364 98.6511-274.3605 240.9456s98.6553 265.1252 240.9558 274.349c67.559 4.379 130.7189-17.649 179.4279-57.2092l252.9851 237.6419c4.8269 4.5349 9.9727 1.0603 15.0864-4.383l9.2601-9.8573C866.2091 818.3921 869.3551 813.0398 864.5282 808.5048zM406.5334 623.7371c-123.5744-8.0106-217.2568-114.6762-209.2469-238.2455s114.6811-217.2477 238.2555-209.2381c123.5744 8.0106 217.2568 114.6762 209.2469 238.2455S530.1069 631.7477 406.5334 623.7371z" p-id="5008" fill="#666666"></path></svg>