<?xml version="1.0" standalone="no"?><!DOCTYPE svg PUBLIC "-//W3C//DTD SVG 1.1//EN" "http://www.w3.org/Graphics/SVG/1.1/DTD/svg11.dtd">
<svg class="icon" style="" viewBox="0 0 1024 1024" version="1.1" xmlns="http://www.w3.org/2000/svg" p-id="1074" xmlns:xlink="http://www.w3.org/1999/xlink" width="200" height="200">
	<defs>
		<style type="text/css"><![CDATA[]]></style>
	</defs>
	<path d="M610.752 464.448 413.376 464.448c-6.912 0-12.48-5.504-12.48-12.352s5.568-12.352 12.48-12.352l197.376 0c6.784 0 12.352 5.504 12.352 12.352S617.536 464.448 610.752 464.448z" p-id="1075" fill="#f7cccc"></path>
	<path d="M643.2 559.296l-262.4 0c-6.784 0-12.352-5.568-12.352-12.416 0-6.784 5.568-12.352 12.352-12.352l262.4 0c6.848 0 12.352 5.568 12.352 12.352C655.552 553.728 650.048 559.296 643.2 559.296z" p-id="1076" fill="#f7cccc"></path>
	<path d="M512 744.512c-6.848 0-12.352-5.632-12.352-12.48L499.648 452.096c0-6.848 5.504-12.352 12.352-12.352s12.352 5.504 12.352 12.352l0 279.936C524.352 738.88 518.848 744.512 512 744.512z" p-id="1077" fill="#f7cccc"></path>
	<path d="M511.68 464.448c-3.2 0-6.4-1.216-8.832-3.648L394.816 352.704c-4.864-4.8-4.864-12.608 0-17.472 4.8-4.8 12.672-4.8 17.472 0l108.096 108.096c4.8 4.864 4.8 12.672 0 17.472C518.016 463.296 514.816 464.448 511.68 464.448z" p-id="1078" fill="#f7cccc"></path>
	<path d="M511.68 464.448c-3.2 0-6.4-1.216-8.832-3.648-4.8-4.8-4.8-12.608 0-17.472l108.8-108.8c4.8-4.8 12.672-4.8 17.472 0 4.864 4.8 4.864 12.672 0 17.472l-108.736 108.8C518.016 463.296 514.816 464.448 511.68 464.448z" p-id="1079" fill="#f7cccc"></path>
	<path d="M883.648 735.104 592.96 735.104c-6.784 0-12.352-5.504-12.352-12.352S586.112 710.4 592.96 710.4l290.688 0c6.784 0 12.352 5.504 12.352 12.352S890.432 735.104 883.648 735.104z" p-id="1080" fill="#f7cccc"></path>
	<path d="M700.544 842.752c-3.2 0-6.336-1.28-8.768-3.648L584.192 731.52c-4.8-4.864-4.8-12.608 0-17.472 4.864-4.864 12.672-4.864 17.472 0l107.712 107.648c4.8 4.736 4.8 12.608 0 17.472C706.88 841.472 703.744 842.752 700.544 842.752z" p-id="1081" fill="#f7cccc"></path>
	<path d="M592.96 735.104c-3.136 0-6.336-1.28-8.768-3.648-4.8-4.864-4.8-12.608 0-17.472l107.648-107.648c4.864-4.864 12.672-4.864 17.536 0 4.8 4.864 4.8 12.608 0 17.472L601.664 731.52C599.296 733.888 596.096 735.104 592.96 735.104z" p-id="1082" fill="#f7cccc"></path>
	<path d="M512 896c-211.776 0-384-172.224-384-384 0-211.776 172.224-384 384-384 46.72 0 92.416 8.32 135.744 24.704C796.224 208.832 896 353.216 896 512c0 6.848-5.568 12.352-12.352 12.352-6.848 0-12.352-5.504-12.352-12.352 0-148.48-93.312-283.584-232.256-336.064C598.464 160.576 555.712 152.768 512 152.768 313.92 152.768 152.768 313.984 152.768 512c0 198.144 161.216 359.296 359.232 359.296 6.848 0 12.352 5.504 12.352 12.352S518.848 896 512 896z" p-id="1083" fill="#f7cccc"></path>
</svg>