<?xml version="1.0" standalone="no"?><!DOCTYPE svg PUBLIC "-//W3C//DTD SVG 1.1//EN" "http://www.w3.org/Graphics/SVG/1.1/DTD/svg11.dtd">
<svg class="icon" style="" viewBox="0 0 1024 1024" version="1.1" xmlns="http://www.w3.org/2000/svg" p-id="1192" xmlns:xlink="http://www.w3.org/1999/xlink" width="200" height="200">
	<defs>
		<style type="text/css"><![CDATA[]]></style>
	</defs>
	<path d="M347.13088 656.49152c0.67072-0.97792 1.44384-1.87904 1.8944-3.00032 0.80384-2.01216 1.23904-4.13184 1.23904-6.26688 0-2.14528-0.4352-4.27008-1.23904-6.28736-0.42496-1.07008-1.17248-1.90976-1.80224-2.85696-0.52224-0.78336-0.83456-1.67936-1.50528-2.39104l-89.68192-94.84288c-6.2208-6.5792-16.49664-6.76864-22.9376-0.39936-6.45632 6.3488-6.62528 16.84992-0.39936 23.43424l63.11424 66.75968L82.10944 630.64064c-8.95488 0-16.22016 7.41888-16.22016 16.57344 0 9.14944 7.26528 16.56832 16.22016 16.56832l213.7088 0-63.11936 66.78016c-6.2208 6.5792-6.05184 17.07008 0.39936 23.43936 6.44096 6.3488 16.71168 6.1696 22.9376-0.4096l89.67168-94.848C346.3424 658.06848 346.62912 657.2288 347.13088 656.49152z" p-id="1193" fill="#cae7e5"></path>
	<path d="M415.4368 568.75008c-9.80992 0-17.77152 8.1408-17.77152 18.18112 0 10.07104 7.9616 18.19136 17.77152 18.19136l112.56832 0 0 77.5168c0 10.0608 7.96672 18.18624 17.77664 18.18624s17.77152-8.12544 17.77152-18.18624l0-77.5168 112.56832 0c9.80992 0 17.77152-8.12032 17.77152-18.19136 0-10.0352-7.9616-18.18112-17.77152-18.18112l-112.56832 0 0-41.78432 112.56832 0c9.80992 0 17.78176-8.12544 17.78176-18.176s-7.97184-18.19648-17.78176-18.19648l-112.56832 0 0-21.92384c0.8704-1.54112 1.48992-3.08224 1.87904-4.75648l104.40704-111.38048c6.93248-7.10656 6.93248-18.6112 0-25.71264-6.94272-7.10656-18.20672-7.10656-25.14944 0L545.78176 433.3568l-98.9184-106.54208c-6.93248-7.10656-18.19136-7.10656-25.13408 0-6.94272 7.10144-6.94272 18.6112 0 25.71264l104.39168 111.39072c0.38912 1.66912 1.01376 3.22048 1.87904 4.74624l0 21.92384L415.4368 490.58816c-9.80992 0-17.77152 8.15104-17.77152 18.19648 0 10.05568 7.9616 18.18112 17.77152 18.18112l112.56832 0 0 41.78432L415.4368 568.75008z" p-id="1194" fill="#cae7e5"></path>
	<path d="M924.22144 347.99616c-20.9408-49.64864-50.9184-94.22336-89.09824-132.5056-38.21056-38.25664-82.66752-68.31104-132.19328-89.2928-51.29728-21.74464-105.7536-32.768-161.89952-32.768s-110.60224 11.02848-161.87392 32.768c-49.55648 20.98176-94.03392 51.03616-132.22912 89.2928-38.1696 38.30272-68.13696 82.85696-89.088 132.5056-21.67296 51.40992-32.6912 105.99424-32.69632 162.26304l0.41984 0c0.59904 9.35424 8.29952 16.77824 17.80736 16.77824s17.20832-7.424 17.80736-16.77824l0.10752 0c0-209.87392 170.37824-380.63616 379.7504-380.63616 209.39264 0 379.75552 170.76224 379.75552 380.63616 0 209.87904-170.34752 380.61568-379.75552 380.61568-74.54208 0-144.07168-21.72416-202.79296-59.0592l-0.04608 0-0.1024 0.18432c-2.82624-1.80224-6.16448-2.87744-9.76384-2.87744-10.07104 0-18.23744 8.17152-18.23744 18.23744 0 5.56032 2.53952 10.47552 6.46144 13.81888l-0.16384 0.14848c0.512 0.3328 1.01376 0.64 1.52064 0.96768 0.21504 0.14848 0.4352 0.2816 0.65024 0.41984 19.85024 12.82048 38.41024 22.1952 60.5952 31.58016 51.27168 21.74464 105.73312 32.78848 161.87392 32.78848 56.14592 0 110.60736-11.04384 161.89952-32.78848 49.53088-20.98176 94.0032-51.01568 132.19328-89.28768 38.17984-38.30272 68.15744-82.8672 89.09824-132.51072 21.66784-51.3792 32.6912-105.96864 32.6912-162.24256S945.88928 399.40608 924.22144 347.99616z" p-id="1195" fill="#cae7e5"></path>
</svg>