<?xml version="1.0" standalone="no"?><!DOCTYPE svg PUBLIC "-//W3C//DTD SVG 1.1//EN" "http://www.w3.org/Graphics/SVG/1.1/DTD/svg11.dtd"><svg t="1480621341498" class="icon" style="" viewBox="0 0 1024 1024" version="1.1" xmlns="http://www.w3.org/2000/svg" p-id="8242" xmlns:xlink="http://www.w3.org/1999/xlink" width="200" height="200"><defs><style type="text/css"></style></defs><path d="M563.942029 0h-51.942029a7.42029 7.42029 0 0 0 0 14.84058h53.574493l1.409855 0.816232A7.42029 7.42029 0 0 1 571.362319 22.26087v26.490434a7.42029 7.42029 0 0 0 14.84058 0V22.26087h-2.003479v-0.445218A22.26087 22.26087 0 0 0 580.563478 7.42029h-3.042319a22.26087 22.26087 0 0 0-4.229565-2.522899 7.42029 7.42029 0 0 0-3.116522-0.667826h-1.632463A7.42029 7.42029 0 0 0 563.942029 0zM460.057971 0h-51.942029a7.42029 7.42029 0 0 0 0 14.84058h51.942029a7.42029 7.42029 0 0 0 0-14.84058zM356.173913 0h-51.942029a7.42029 7.42029 0 0 0 0 14.84058h51.942029a7.42029 7.42029 0 0 0 0-14.84058zM252.289855 0h-51.942029a7.42029 7.42029 0 0 0 0 14.84058h51.942029a7.42029 7.42029 0 0 0 0-14.84058zM148.405797 0H133.565217a22.26087 22.26087 0 0 0-22.260869 22.26087v2.151884a7.42029 7.42029 0 0 0 14.84058 0V22.26087a7.42029 7.42029 0 0 1 7.420289-7.42029h14.84058a7.42029 7.42029 0 0 0 0-14.84058zM118.724638 68.934493a7.42029 7.42029 0 0 0-7.42029 7.42029v51.942029a7.42029 7.42029 0 0 0 14.84058 0v-51.942029a7.42029 7.42029 0 0 0-7.42029-7.42029z m0 103.884058a7.42029 7.42029 0 0 0-7.42029 7.42029v51.942029a7.42029 7.42029 0 0 0 14.84058 0v-51.942029a7.42029 7.42029 0 0 0-7.42029-7.42029z m0 103.884058a7.42029 7.42029 0 0 0-7.42029 7.42029v51.942029a7.42029 7.42029 0 0 0 14.84058 0v-51.942029a7.42029 7.42029 0 0 0-7.42029-7.42029z m0 103.884058a7.42029 7.42029 0 0 0-7.42029 7.42029v51.942029a7.42029 7.42029 0 0 0 14.84058 0v-51.942029a7.42029 7.42029 0 0 0-7.42029-7.42029z m0 103.884058a7.42029 7.42029 0 0 0-7.42029 7.420289v51.942029a7.42029 7.42029 0 0 0 14.84058 0v-51.942029a7.42029 7.42029 0 0 0-7.42029-7.420289z m0 103.884058a7.42029 7.42029 0 0 0-7.42029 7.420289v51.942029a7.42029 7.42029 0 0 0 14.84058 0v-51.942029a7.42029 7.42029 0 0 0-7.42029-7.420289z m0 103.884058a7.42029 7.42029 0 0 0-7.42029 7.420289v51.942029a7.42029 7.42029 0 0 0 14.84058 0v-51.942029a7.42029 7.42029 0 0 0-7.42029-7.420289z m0 103.884058a7.42029 7.42029 0 0 0-7.42029 7.420289v51.942029a7.42029 7.42029 0 0 0 14.84058 0v-51.942029a7.42029 7.42029 0 0 0-7.42029-7.420289z m0 103.884058a7.42029 7.42029 0 0 0-7.42029 7.420289v51.942029a7.42029 7.42029 0 0 0 14.84058 0v-51.942029a7.42029 7.42029 0 0 0-7.42029-7.420289z m1.335652 100.470724a7.42029 7.42029 0 0 0-6.752464 10.462609 22.26087 22.26087 0 0 0 4.303768 6.307246h42.295652a7.42029 7.42029 0 0 0 0-14.840579H133.565217a7.42029 7.42029 0 0 1-6.752463-4.303769 7.42029 7.42029 0 0 0-6.752464-4.303768zM263.93971 1009.15942h-51.942029a7.42029 7.42029 0 1 0 0 14.84058h51.942029a7.42029 7.42029 0 0 0 0-14.84058z m103.884058 0h-51.942029a7.42029 7.42029 0 1 0 0 14.84058h51.942029a7.42029 7.42029 0 0 0 0-14.84058z m103.884058 0h-51.942029a7.42029 7.42029 0 0 0 0 14.84058h51.942029a7.42029 7.42029 0 0 0 0-14.84058z m103.884058 0h-51.942029a7.42029 7.42029 0 0 0 0 14.84058h51.942029a7.42029 7.42029 0 0 0 0-14.84058z m103.884058 0h-51.942029a7.42029 7.42029 0 0 0 0 14.84058h51.942029a7.42029 7.42029 0 0 0 0-14.84058z m103.884058 0h-51.942029a7.42029 7.42029 0 0 0 0 14.84058h51.942029a7.42029 7.42029 0 0 0 0-14.84058z m103.884058 0h-51.942029a7.42029 7.42029 0 0 0 0 14.84058h51.942029a7.42029 7.42029 0 0 0 0-14.84058z m18.031304-80.584348a7.42029 7.42029 0 0 0-7.42029 7.42029v51.942029a7.42029 7.42029 0 0 0 14.84058 0v-51.942029a7.42029 7.42029 0 0 0-7.42029-7.42029z m0-103.884058a7.42029 7.42029 0 0 0-7.42029 7.42029v51.942029a7.42029 7.42029 0 0 0 14.84058 0v-51.942029a7.42029 7.42029 0 0 0-7.42029-7.42029z m0-103.884057a7.42029 7.42029 0 0 0-7.42029 7.420289v51.942029a7.42029 7.42029 0 0 0 14.84058 0v-51.942029a7.42029 7.42029 0 0 0-7.42029-7.420289z m0-103.884058a7.42029 7.42029 0 0 0-7.42029 7.420289v51.942029a7.42029 7.42029 0 0 0 14.84058 0v-51.942029a7.42029 7.42029 0 0 0-7.42029-7.420289z m0-103.884058a7.42029 7.42029 0 0 0-7.42029 7.420289v51.942029a7.42029 7.42029 0 0 0 14.84058 0v-51.942029a7.42029 7.42029 0 0 0-7.42029-7.420289z m0-103.884058a7.42029 7.42029 0 0 0-7.42029 7.420289v51.942029a7.42029 7.42029 0 1 0 14.84058 0v-51.942029a7.42029 7.42029 0 0 0-7.42029-7.420289zM890.434783 326.492754h-1.113044a7.42029 7.42029 0 0 0 0 14.840579h1.113044a7.42029 7.42029 0 0 1 7.420289 7.42029v15.87942a7.42029 7.42029 0 1 0 14.84058 0V348.753623a22.26087 22.26087 0 0 0-22.260869-22.260869z m-53.055073 0h-51.942029a7.42029 7.42029 0 0 0 0 14.840579h51.942029a7.42029 7.42029 0 0 0 0-14.840579z m-103.884058 0h-51.942029a7.42029 7.42029 0 0 0 0 14.840579h51.942029a7.42029 7.42029 0 0 0 0-14.840579z m-154.193623-24.115942h-1.335652a7.42029 7.42029 0 0 0-6.010435 8.607536A37.101449 37.101449 0 0 0 608.463768 341.333333h21.147826a7.42029 7.42029 0 0 0 0-14.840579H608.463768a21.444638 21.444638 0 0 1-15.731014-6.529855h-0.593624a21.518841 21.518841 0 0 1-4.823188-8.310725h-0.51942v-0.964638a7.42029 7.42029 0 0 0-7.42029-6.084637zM578.782609 197.157101a7.42029 7.42029 0 0 0-7.42029 7.42029v51.942029a7.42029 7.42029 0 0 0 14.84058 0v-51.942029a7.42029 7.42029 0 0 0-7.42029-7.42029z m0-103.884058a7.42029 7.42029 0 0 0-7.42029 7.42029v51.942029a7.42029 7.42029 0 0 0 14.84058 0v-51.942029a7.42029 7.42029 0 0 0-7.42029-7.42029z" p-id="8243" fill="#EEEEEE"></path></svg>