<?xml version="1.0" standalone="no"?><!DOCTYPE svg PUBLIC "-//W3C//DTD SVG 1.1//EN" "http://www.w3.org/Graphics/SVG/1.1/DTD/svg11.dtd">
<svg class="icon" style="" viewBox="0 0 1891 1024" version="1.1" xmlns="http://www.w3.org/2000/svg" p-id="12035" xmlns:xlink="http://www.w3.org/1999/xlink" width="369.3359375" height="200">
	<defs>
		<style type="text/css"><![CDATA[]]></style>
	</defs>
	<path d="M934.687712 849.270839C934.973511 841.11642 935.222595 834.010797 935.644743 821.957467 921.585577 824.548005 909.589929 826.333586 897.86435 829.209923 894.704845 829.986028 890.389031 833.955738 890.194999 836.70884 889.987868 839.595662 893.781898 844.939296 896.398651 845.324729 899.820363 845.822905 904.136176 843.012128 907.476598 840.751963 914.105013 836.247363 920.329641 831.155444 927.857404 827.906788 924.690022 849.087299 920.308665 852.553578 902.541997 854.042876 889.253707 855.159847 877.092872 856.769757 864.397154 865.112954 851.709298 873.44829 833.242553 872.860963 817.389946 876.542251 768.109469 887.97941 718.878808 899.626331 669.61144 911.115934 618.217631 923.106336 566.800223 935.01284 514.472982 947.171052 513.623454 937.912769 512.970577 930.812392 512.005681 920.295558 496.087523 923.995199 481.267982 927.435256 464.42688 931.347283 473.255152 943.730987 478.674825 950.655685 488.142865 935.634251 491.399388 930.46105 500.43742 928.940284 510.783829 923.780191 504.333711 941.504906 499.042516 950.655685 482.65502 951.76741 468.171095 952.753286 454.198461 959.887746 439.774843 963.40647 408.148286 971.120388 376.40374 978.357106 344.669682 985.617424 290.766619 997.956553 236.8688 1010.319281 182.876589 1022.244131 175.372427 1023.903862 167.071177 1024.527896 159.593235 1023.161832 147.248862 1020.909536 136.928673 1015.725844 145.510476 1003.439151 125.591147 976.825864 129.023345 945.259615 116.928061 918.111429 123.06354 915.216746 127.193189 913.27384 131.322838 911.333565 131.134054 910.187748 130.94527 909.044555 130.756486 907.898746 126.034265 908.003619 121.317289 908.108501 112.158644 908.320886 116.600311 901.118251 119.762443 895.981757 120.737827 894.408554 116.487566 886.613354 111.162285 879.990177 109.088284 872.47553 102.042971 846.952992 95.95731 821.155139 89.850674 795.378263 71.910954 719.686384 54.078737 643.968287 36.372375 568.221347 34.510756 560.247847 28.642721 550.352422 38.724309 548.61928 35.389125 543.160277 30.179213 537.536089 28.270397 530.957492 22.630476 511.507501 18.076064 491.72976 13.542627 471.975617 11.510577 463.134235 6.261334 454.096203 15.67169 445.317749 17.446784 443.663268 14.394776 435.306956 11.867169 431.048828 9.680422 427.370164 2.351933 425.366957 2.071379 422.194337 1.355574 414.157909 1.410636 404.912739 4.892651 398.048345 7.137082 393.617166 15.82901 392.067564 21.922537 390.129907 24.817224 389.209585 28.695161 391.396332 31.595092 390.483877 60.704529 381.325233 89.703842 371.820485 120.698496 361.772984 120.522823 368.84976 120.417942 373.042337 120.305197 377.470894 122.51292 377.179852 124.175268 377.355526 124.392894 376.8757 133.627576 356.468679 153.877276 354.717183 171.253266 353.206912 198.238884 350.860223 222.607746 339.792763 248.675664 335.05481 252.432988 334.37309 256.258485 334.063695 260.865338 333.478988 263.964541 341.483952 253.421482 356.214345 270.08691 355.606041 269.31342 348.059927 265.196881 337.5326 268.597614 333.735945 273.136295 328.670242 283.469595 328.6414 291.388033 326.774536 330.206733 317.61327 368.99397 308.313038 407.893952 299.521475 483.556988 282.426039 559.348501 265.875979 634.951231 248.523587 651.016221 244.834434 666.517481 238.69109 684.438847 232.988241 684.242197 244.163203 674.653546 256.756665 690.755244 257.616681 690.385541 250.526795 688.340382 243.554899 690.306881 238.001504 691.651967 234.194361 698.256783 230.961436 703.055043 229.862818 765.10728 215.656825 827.3011 202.082735 889.369072 187.95278 950.356779 174.066671 1011.147831 159.317925 1072.237796 145.874935 1087.146488 142.594813 1103.135437 144.288625 1118.109672 141.19991 1129.032925 138.94499 1138.88115 129.466463 1149.610378 128.677241 1178.216385 126.563909 1203.613074 113.126162 1231.519011 108.592726 1260.97193 103.807577 1289.824414 95.393581 1318.996779 88.825472 1331.157614 86.085483 1343.751073 83.358603 1352.597701 95.986152 1356.522835 101.584121 1359.635149 107.756308 1364.748044 116.435126 1314.583954 124.329966 1271.150537 142.778353 1224.641512 142.736401 1224.554984 141.367717 1224.468456 139.99379 1224.381928 138.627728 1221.846457 141.863275 1219.709527 147.432402 1216.712586 147.946314 1194.719256 151.719371 1172.419151 153.769774 1150.509718 157.909911 1142.106214 159.493599 1134.830167 166.70672 1126.416171 168.657487 1015.369255 194.389788 904.277764 219.983124 792.937181 244.425403 783.120415 246.580686 768.143555 243.780391 761.546604 237.24899 753.845792 229.613728 749.220585 231.200038 741.525017 233.308125 733.973659 235.376883 726.029001 236.485988 718.194467 236.926484 707.095543 237.553142 706.256504 242.755189 710.2131 251.544131 722.754124 253.26154 735.913938 237.448262 750.953726 254.57254 742.114966 256.622943 736.37541 257.983761 730.620121 259.292139 611.778001 286.369526 492.985698 313.688137 373.988879 340.068073 363.833875 342.325614 349.197874 342.197136 342.000486 336.460202 323.696309 321.86091 308.045595 337.168141 291.380166 337.123567 289.783369 337.120946 288.165596 343.744116 286.311842 347.834435 300.635824 350.847112 312.264392 335.851898 326.33404 349.599041 228.279131 372.381593 132.686278 394.59255 35.963343 417.065706 37.237635 424.784872 37.830207 430.243875 39.05468 435.558668 53.255429 497.146811 67.810147 558.653672 81.536314 620.349316 83.573608 629.510582 81.803758 639.521376 81.79327 651.986361 92.721763 659.309605 97.942164 672.555946 101.227529 709.518271 96.209023 711.710262 90.826058 714.064818 85.440471 716.427239 85.285773 717.533723 85.131075 718.632341 84.981621 719.73358 91.476314 721.076044 97.968384 722.42113 105.115954 723.897316 117.0041 775.068255 128.892244 826.690182 141.01637 878.259665 149.008223 912.238151 157.034164 946.216645 166.03811 979.935555 166.861418 983.005917 175.532369 986.702935 179.58598 985.79048 267.661561 965.931457 355.524759 945.115404 443.58723 925.180337 556.97297 899.518834 670.479322 874.392214 783.993541 849.323276 790.443662 847.89953 797.832452 850.450739 804.138362 848.756925 814.933134 845.849127 824.915086 839.732003 835.759671 837.227993 1008.974194 797.245125 1182.277868 757.673911 1355.534336 717.887693 1422.536909 702.501801 1489.47393 686.80389 1555.739719 671.404888 1563.086564 684.271039 1581.306841 686.219184 1585.079895 675.230385 1588.866064 664.212744 1596.302052 664.15506 1603.976641 662.374722 1680.929705 644.482198 1757.924714 626.752239 1834.90137 608.972461 1839.738959 607.852868 1844.573924 606.72803 1851.899794 605.021108 1840.470496 555.835023 1829.389926 508.17494 1818.325094 460.50437 1807.357267 413.229721 1795.791628 366.080929 1785.631382 318.630606 1775.465889 271.140954 1768.145266 223.00629 1756.944085 175.778837 1745.973642 129.492682 1731.678499 83.993127 1719.845415 41.72912 1708.798937 36.002673 1699.493463 30.682637 1689.771087 26.2803 1680.984765 22.294861 1672.235158 12.766515 1662.069665 24.901128 1660.698356 26.532012 1655.44125 24.901128 1651.985455 24.783138 1651.843868 26.261946 1651.704895 27.740753 1651.568553 29.222183 1660.721955 29.924879 1669.875358 30.624953 1679.83371 31.385332 1678.614481 43.331161 1673.089922 48.14253 1659.995664 46.446097 1654.510434 45.735535 1648.485085 51.587837 1642.375822 52.822799 1608.423558 59.695059 1574.329698 65.896088 1540.369566 72.752616 1534.084632 74.021664 1528.373918 78.303389 1522.086361 79.370542 1498.299581 83.416288 1474.389567 86.717385 1450.233092 90.335744 1450.2226 90.406538 1449.884365 93.177991 1449.540884 95.946823 1447.081448 95.364739 1443.683336 95.595474 1442.325142 94.043251 1435.594468 86.345061 1429.406547 78.172289 1420.848341 67.429958 1455.340741 59.417127 1488.335982 51.34137 1521.522633 44.143981 1561.405865 35.491383 1601.496229 27.787949 1641.403061 19.211389 1650.582686 17.237024 1659.172352 12.365349 1668.380814 10.645317 1680.287311 8.424484 1694.907581-0.571596 1701.328857 19.478833 1701.454714 19.882621 1705.364118 19.072423 1709.234184 18.626683 1706.507311 13.348599 1704.370381 9.208462 1700.767752 2.233943 1711.788016 1.76985 1721.523499 1.358196 1732.071802 0.912456 1730.828973 7.089886 1729.953225 11.450271 1729.080099 15.813278 1731.476606 17.129522 1733.873113 18.448387 1736.272242 19.767253 1736.854331 14.761856 1737.444281 9.75646 1738.251855 2.863223 1743.708231 7.074154 1746.914942 9.549322 1749.990542 11.924853 1748.734606 14.122089 1748.38064 15.61925 1747.683186 15.80279 1744.969413 16.526462 1742.153389 16.830614 1739.368826 17.289464 1740.784703 19.782985 1741.872837 22.559682 1743.692501 24.714966 1747.431471 29.143523 1753.934029 32.65438 1755.158504 37.570629 1765.761875 80.256778 1775.444913 123.171042 1785.426865 166.135123 1780.602384 168.738769 1776.540908 170.93076 1769.784021 174.580583 1794.357398 182.33908 1793.03591 203.488126 1797.22062 220.143066 1820.684895 313.462645 1843.01646 407.068023 1865.353271 500.668156 1873.19567 533.519186 1880.065308 566.606196 1887.168307 599.630278 1891.995412 622.100812 1889.690671 626.004969 1867.589837 631.935931 1810.619038 647.235298 1753.902568 663.664746 1696.506998 677.162798 1594.655437 701.114763 1492.360751 723.157911 1390.281074 746.14498 1336.650697 758.221909 1283.154046 770.909764 1229.473855 782.771689 1189.821361 791.529165 1149.8752 798.938939 1110.241052 807.785567 1072.602254 816.178586 1035.217786 825.688576 997.694354 834.611239 977.227028 839.477665 956.70988 844.15269 934.687712 849.270839ZM521.156459 414.949753C525.168118 437.737549 529.677956 459.754478 534.657133 480.982185L550.905664 550.320957C557.054252 576.559305 563.6748 602.037273 570.785663 626.715531L529.559966 636.380221 522.96826 608.264521 275.595731 666.247415 305.019808 791.804479C309.529646 822.384853 328.53652 833.098342 361.974878 823.931833L547.502308 780.448597C569.031545 776.735846 582.967472 770.159872 589.35204 760.765249 595.705145 751.360136 596.672662 728.740148 592.220507 692.865953 608.007566 698.406238 625.228858 701.626053 643.902737 702.499178 644.314391 737.990561 641.220432 762.755346 634.636591 776.830239 628.044884 790.894639 616.141008 800.598662 598.953802 805.960649L347.831813 864.808802C303.139834 876.581581 277.344604 862.202541 270.49332 821.640208L232.726041 660.471151C229.79989 648.000922 223.735205 625.026963 214.597537 591.575495L259.577936 581.03768C262.422806 598.841056 265.904821 616.466136 270.000384 633.947005L515.500806 576.407229 487.836091 458.343842 279.811905 507.094676C251.059061 513.833214 218.735053 522.087269 182.79793 531.80702L174.014232 494.328162C210.533438 487.099309 242.534941 480.242781 270.029226 473.803151L521.156459 414.949753M820.635979 667.020905 788.574176 530.210223C758.591611 537.242425 736.865724 543.013445 723.420111 547.455112L714.636413 509.978875C726.469497 509.860885 749.857731 505.673552 784.850935 497.474561L820.460308 489.128736C823.593598 508.167074 827.371898 527.050713 831.763747 545.792765L858.993207 661.984044C902.539374 684.740377 959.67536 688.122756 1030.424773 672.217708 1101.137471 656.294305 1156.409218 640.376147 1196.179708 624.484209 1191.604319 638.708556 1189.648305 655.662404 1190.295938 675.28807L1077.854121 701.639162C1046.605131 708.962407 1017.658258 714.751782 990.979411 719.030885 964.308433 723.302121 940.862519 723.178887 920.720321 718.692647 900.544032 714.180186 882.420775 708.545509 866.345299 701.778129 850.238354 695.018614 837.663248 698.962101 828.583259 713.592858 819.477055 728.241968 809.940842 747.92794 799.930053 772.700589 789.507608 761.953014 775.768329 753.958538 758.733199 748.746003 789.536445 705.93662 810.184696 678.696669 820.635979 667.020905L820.635979 667.020905ZM812.704437 413.840647C801.956856 424.270961 792.003749 435.188966 782.808397 446.552711 747.846658 409.952222 722.809186 387.460711 707.695981 379.141107 717.481283 370.270884 726.674013 358.880918 735.284659 345.002676 751.268367 357.069117 777.097682 380.022099 812.704437 413.840647L812.704437 413.840647ZM1047.195081 596.127286C1054.109294 591.879648 1055.359984 580.371692 1050.976004 561.629641L1011.00362 391.094803 889.188155 419.637888C875.42528 422.865569 860.584763 427.024059 844.648251 432.058299L836.305054 396.448926C852.823647 393.905586 872.965845 389.830999 896.718541 384.267116L1003.536171 359.234888C995.92975 326.761426 988.082105 298.944635 980.024698 275.77927L1023.130372 265.676707C1025.681573 282.224145 1031.654487 310.476188 1041.017651 350.448568 1067.25862 344.297358 1090.833014 338.125172 1111.795901 331.884813L1120.141722 367.494187C1099.855313 370.94736 1075.958414 375.868852 1048.487723 382.305861L1091.965716 567.843779C1098.709504 596.596624 1094.296678 615.729354 1078.7456 625.307517 1063.199768 634.877815 1043.0733 643.239371 1018.379311 650.321391 1012.644998 637.179931 1004.296546 623.970298 993.286774 610.739689 1022.30706 605.262332 1040.288736 600.398523 1047.195081 596.127286L1047.195081 596.127286ZM879.429073 479.264775C889.515906 471.650489 899.760057 461.985799 910.211348 450.299548 943.240672 490.007106 964.911498 517.889448 975.273637 533.899376 967.696061 540.963042 956.804277 550.774563 942.627123 563.299854 923.478662 532.208186 902.40041 504.215721 879.429073 479.264775L879.429073 479.264775ZM1346.307521 572.484718C1337.437302 593.686205 1328.336337 612.59082 1319.091168 629.279846 1304.525966 623.451142 1292.294333 619.059293 1282.398909 616.133141 1291.596887 604.77464 1300.600832 589.813512 1309.442213 571.244512 1318.257373 552.706977 1324.676025 535.055677 1328.664088 518.295858L1371.418411 532.006292C1363.539306 537.806155 1355.185617 551.314695 1346.307521 572.484718L1346.307521 572.484718ZM1243.519905 214.031186 1282.873494 204.80437C1287.472482 230.109286 1291.693899 250.865033 1295.501044 267.089965L1379.829784 247.330577C1374.268526 223.604105 1368.791166 203.1394 1363.463263 185.920731L1404.686336 176.256041C1408.409576 197.808876 1412.628378 218.569867 1417.306025 238.541636 1426.032033 236.501721 1437.138826 233.245197 1450.610656 228.761578L1458.067621 260.621492C1445.277515 262.320548 1433.882301 264.313268 1423.897726 266.652091L1465.621606 444.688469C1475.608797 442.349646 1486.710343 439.095745 1498.920999 434.908412L1506.383202 466.768326C1482.349962 471.105113 1459.092827 475.877152 1436.606559 481.147371L1335.40263 504.860733C1307.910963 511.305607 1284.310347 517.517124 1264.629618 523.424488L1257.162169 491.564574C1276.19788 488.436529 1293.209411 485.093479 1308.202008 481.58L1266.475512 303.543622C1255.237616 306.181353 1242.263969 309.899348 1227.562417 314.642545L1220.097583 282.780009C1234.120034 280.826619 1247.384734 278.367184 1259.88905 275.433166 1255.4972 256.691116 1250.017217 236.229033 1243.519905 214.031186L1243.519905 214.031186ZM1396.078316 316.664107 1386.413623 275.438411 1302.082261 295.197798 1311.744331 336.428738 1396.078316 316.664107 1396.078316 316.664107ZM1411.888971 384.130772 1402.662156 344.77194 1318.330793 364.539193 1327.557608 403.892782 1411.888971 384.130772 1411.888971 384.130772ZM1428.140127 453.466923 1418.478056 412.241228 1334.141448 432.005859 1343.80351 473.231555 1428.140127 453.466923 1428.140127 453.466923ZM1418.27354 521.027981C1424.600426 514.292064 1430.95615 504.889575 1437.364319 492.825756 1455.873008 504.310113 1477.745727 518.951357 1503.013935 536.752111 1494.754643 546.595096 1486.823093 557.69402 1479.177342 570.014795 1452.149768 544.709879 1431.863359 528.403665 1418.27354 521.027981L1418.27354 521.027981ZM1667.809217 506.03801 1643.214864 401.092486 1560.75561 420.411377C1565.26807 450.986512 1565.15532 481.349264 1560.346577 511.452439 1555.548318 541.581833 1545.291051 570.990178 1529.627231 599.706315 1518.239886 590.513586 1504.474388 585.156841 1488.309768 583.683278 1504.568785 557.48426 1515.221969 531.261644 1520.28505 505.025919 1525.32977 478.821657 1526.032471 453.603267 1522.338076 429.417945 1518.651542 405.261465 1510.512853 366.298555 1497.919393 312.568544 1485.042751 257.603571 1474.150967 214.03643 1465.299102 181.819924L1624.59867 144.487897C1628.898745 168.529009 1635.021115 197.402466 1642.929065 231.134488L1707.490556 506.625338C1711.588746 524.103586 1708.743869 537.281755 1698.97168 546.180821 1689.181137 555.053666 1675.216368 562.932775 1657.06689 569.844365 1653.839202 556.08149 1645.464537 542.905943 1631.97173 530.257418 1661.571482 527.270962 1673.519931 519.187337 1667.809217 506.03801L1667.809217 506.03801ZM1611.590932 266.156533 1591.828921 181.825167 1511.24439 200.708807 1531.011647 285.040172 1611.590932 266.156533 1611.590932 266.156533ZM1636.628401 372.979409 1618.18264 294.272232 1537.592864 313.153249 1556.043871 391.870915 1636.628401 372.979409 1636.628401 372.979409Z" p-id="12036" fill="#CCCCCC"></path>
</svg>