<?xml version="1.0" standalone="no"?><!DOCTYPE svg PUBLIC "-//W3C//DTD SVG 1.1//EN" "http://www.w3.org/Graphics/SVG/1.1/DTD/svg11.dtd"><svg class="icon" style="" viewBox="0 0 1024 1024" version="1.1" xmlns="http://www.w3.org/2000/svg" p-id="1870" xmlns:xlink="http://www.w3.org/1999/xlink" width="200" height="200"><defs><style type="text/css"><![CDATA[

]]></style></defs><path d="M773.96741 387.531174c-0.152473 21.661346-2.387373 48.910966-12.755512 74.503854-8.618285 21.273513-18.959817 41.857317-28.733415 62.654992C679.18265 638.087697 625.811092 751.451604 572.500932 864.84314c-14.660908 31.184233-43.310412 45.763276-76.845179 37.917588-18.454304-4.317329-32.641421-15.155165-40.984437-32.603559-12.483312-26.107611-24.784476-52.30118-37.138852-78.471213-49.858548-105.616456-99.67821-211.250308-149.5869-316.843228-9.741875-20.61041-14.56881-42.444694-16.593933-64.954361-2.969635-33.011858-1.105171-65.718771 7.350408-97.892541 11.261485-42.85197 33.097816-79.68997 63.673182-111.5107 34.04949-35.437094 73.968665-61.708434 122.139781-72.804143 93.834108-21.614274 177.850617-2.912329 248.797459 64.538899 35.767622 34.005488 60.755736 74.563206 72.803119 122.718973C771.606643 336.88468 774.025739 359.186615 773.96741 387.531174zM511.816828 512.094144c72.229045 0.470721 130.443911-57.763588 131.190925-130.767276 0.731664-71.448262-58.95574-131.50508-130.612757-131.400702-72.415286 0.105401-131.049708 57.895595-131.414005 130.545218C380.616694 453.275527 438.609503 511.617283 511.816828 512.094144z" p-id="1871" fill="#bfbfbf"></path></svg>