<?xml version="1.0" standalone="no"?><!DOCTYPE svg PUBLIC "-//W3C//DTD SVG 1.1//EN" "http://www.w3.org/Graphics/SVG/1.1/DTD/svg11.dtd"><svg t="1481122791996" class="icon" style="" viewBox="0 0 1080 1024" version="1.1" xmlns="http://www.w3.org/2000/svg" p-id="5254" xmlns:xlink="http://www.w3.org/1999/xlink" width="210.9375" height="200"><defs><style type="text/css"></style></defs><path d="M538.676579 0.004032C255.870972 0.004032 26.680611 229.238746 26.680611 512c0 282.785447 229.198425 512.004032 511.995968 512.004032 282.737061 0 511.991936-229.242778 511.991936-512.004032C1050.676579 229.222618 821.41364 0.004032 538.676579 0.004032zM273.503481 347.868074c0-17.886533 14.5318-32.422366 32.414301-32.422366l164.889967 0c12.987494 0 25.200819 5.064357 34.386014 14.245519l87.767396 87.767396-22.926697 22.930729-87.771429-87.767396c-3.068452-3.06442-7.140904-4.753883-11.467381-4.753883L305.917782 347.868074l0 164.885935c0 4.330509 1.685431 8.398929 4.74985 11.463349l87.767396 87.767396-22.930729 22.934761-87.775461-87.771429c-9.17713-9.17713-14.233423-21.402552-14.233423-34.377949L273.495417 347.868074 273.503481 347.868074 273.503481 347.868074zM419.385982 428.926004c0 17.894598-14.527768 32.418334-32.422366 32.418334-17.89863 0-32.418334-14.523736-32.418334-32.418334 0-17.902662 14.519704-32.422366 32.418334-32.422366C404.87031 396.503638 419.385982 411.023342 419.385982 428.926004zM257.290282 785.535738 842.2275 234.424067 289.704583 817.950039 257.290282 785.535738zM829.373067 625.415782l-148.668704 148.660639c-9.483572 9.487604-21.930761 14.213262-34.381981 14.213262-12.459285 0-24.910506-4.741786-34.390046-14.213262l-122.963868-122.955804 22.930729-22.934761 122.9679 122.963868c6.322381 6.310285 16.600284 6.310285 22.934761 0l148.668704-148.668704c6.314317-6.310285 6.314317-16.604316 0-22.930729l-122.963868-122.971933 22.934761-22.926697 122.955804 122.963868C848.340211 575.594771 848.340211 606.444605 829.373067 625.415782z" p-id="5255" fill="#ffffff"></path></svg>