<?xml version="1.0" standalone="no"?><!DOCTYPE svg PUBLIC "-//W3C//DTD SVG 1.1//EN" "http://www.w3.org/Graphics/SVG/1.1/DTD/svg11.dtd"><svg class="icon" style="" viewBox="0 0 1024 1024" version="1.1" xmlns="http://www.w3.org/2000/svg" p-id="1806" xmlns:xlink="http://www.w3.org/1999/xlink" width="200" height="200"><defs><style type="text/css"><![CDATA[

]]></style></defs><path d="M512 230.4C356.476614 230.4 230.4 356.476614 230.4 512 230.4 667.523386 356.476614 793.6 512 793.6 519.069244 793.6 524.8 787.869244 524.8 780.8 524.8 773.730756 519.069244 768 512 768 370.615104 768 256 653.384896 256 512 256 370.615104 370.615104 256 512 256 653.384896 256 768 370.615104 768 512 768 519.069244 773.730756 524.8 780.8 524.8 787.869244 524.8 793.6 519.069244 793.6 512 793.6 356.476614 667.523386 230.4 512 230.4ZM512 307.2C398.892083 307.2 307.2 398.892083 307.2 512 307.2 625.107917 398.892083 716.8 512 716.8 519.069244 716.8 524.8 711.069244 524.8 704 524.8 696.930756 519.069244 691.2 512 691.2 413.030573 691.2 332.8 610.969427 332.8 512 332.8 413.030573 413.030573 332.8 512 332.8 610.969427 332.8 691.2 413.030573 691.2 512 691.2 519.069244 696.930756 524.8 704 524.8 711.069244 524.8 716.8 519.069244 716.8 512 716.8 398.892083 625.107917 307.2 512 307.2ZM500.766522 516.957384 591.276189 788.486387C594.866193 799.256396 609.65937 800.369245 614.820247 790.257541L675.989894 670.407853 670.407853 675.989894 790.257541 614.820247C800.369245 609.65937 799.256396 594.866193 788.486387 591.276189L516.957384 500.766522C506.95088 497.431021 497.431021 506.95088 500.766522 516.957384Z" p-id="1807" fill="#ee848c"></path></svg>