<?xml version="1.0" standalone="no"?><!DOCTYPE svg PUBLIC "-//W3C//DTD SVG 1.1//EN" "http://www.w3.org/Graphics/SVG/1.1/DTD/svg11.dtd">
<svg class="icon" style="" viewBox="0 0 1891 1024" version="1.1" xmlns="http://www.w3.org/2000/svg" p-id="13524" xmlns:xlink="http://www.w3.org/1999/xlink" width="369.3359375" height="200">
	<defs>
		<style type="text/css"><![CDATA[]]></style>
	</defs>
	<path d="M934.687712 849.270839C934.973511 841.11642 935.222595 834.010797 935.644743 821.957467 921.585577 824.548005 909.589929 826.333586 897.86435 829.209923 894.704845 829.986028 890.389031 833.955738 890.194999 836.70884 889.987868 839.595662 893.781898 844.939296 896.398651 845.324729 899.820363 845.822905 904.136176 843.012128 907.476598 840.751963 914.105013 836.247363 920.329641 831.155444 927.857404 827.906788 924.690022 849.087299 920.308665 852.553578 902.541997 854.042876 889.253707 855.159847 877.092872 856.769757 864.397154 865.112954 851.709298 873.44829 833.242553 872.860963 817.389946 876.542251 768.109469 887.97941 718.878808 899.626331 669.61144 911.115934 618.217631 923.106336 566.800223 935.01284 514.472982 947.171052 513.623454 937.912769 512.970577 930.812392 512.005681 920.295558 496.087523 923.995199 481.267982 927.435256 464.42688 931.347283 473.255152 943.730987 478.674825 950.655685 488.142865 935.634251 491.399388 930.46105 500.43742 928.940284 510.783829 923.780191 504.333711 941.504906 499.042516 950.655685 482.65502 951.76741 468.171095 952.753286 454.198461 959.887746 439.774843 963.40647 408.148286 971.120388 376.40374 978.357106 344.669682 985.617424 290.766619 997.956553 236.8688 1010.319281 182.876589 1022.244131 175.372427 1023.903862 167.071177 1024.527896 159.593235 1023.161832 147.248862 1020.909536 136.928673 1015.725844 145.510476 1003.439151 125.591147 976.825864 129.023345 945.259615 116.928061 918.111429 123.06354 915.216746 127.193189 913.27384 131.322838 911.333565 131.134054 910.187748 130.94527 909.044555 130.756486 907.898746 126.034265 908.003619 121.317289 908.108501 112.158644 908.320886 116.600311 901.118251 119.762443 895.981757 120.737827 894.408554 116.487566 886.613354 111.162285 879.990177 109.088284 872.47553 102.042971 846.952992 95.95731 821.155139 89.850674 795.378263 71.910954 719.686384 54.078737 643.968287 36.372375 568.221347 34.510756 560.247847 28.642721 550.352422 38.724309 548.61928 35.389125 543.160277 30.179213 537.536089 28.270397 530.957492 22.630476 511.507501 18.076064 491.72976 13.542627 471.975617 11.510577 463.134235 6.261334 454.096203 15.67169 445.317749 17.446784 443.663268 14.394776 435.306956 11.867169 431.048828 9.680422 427.370164 2.351933 425.366957 2.071379 422.194337 1.355574 414.157909 1.410636 404.912739 4.892651 398.048345 7.137082 393.617166 15.82901 392.067564 21.922537 390.129907 24.817224 389.209585 28.695161 391.396332 31.595092 390.483877 60.704529 381.325233 89.703842 371.820485 120.698496 361.772984 120.522823 368.84976 120.417942 373.042337 120.305197 377.470894 122.51292 377.179852 124.175268 377.355526 124.392894 376.8757 133.627576 356.468679 153.877276 354.717183 171.253266 353.206912 198.238884 350.860223 222.607746 339.792763 248.675664 335.05481 252.432988 334.37309 256.258485 334.063695 260.865338 333.478988 263.964541 341.483952 253.421482 356.214345 270.08691 355.606041 269.31342 348.059927 265.196881 337.5326 268.597614 333.735945 273.136295 328.670242 283.469595 328.6414 291.388033 326.774536 330.206733 317.61327 368.99397 308.313038 407.893952 299.521475 483.556988 282.426039 559.348501 265.875979 634.951231 248.523587 651.016221 244.834434 666.517481 238.69109 684.438847 232.988241 684.242197 244.163203 674.653546 256.756665 690.755244 257.616681 690.385541 250.526795 688.340382 243.554899 690.306881 238.001504 691.651967 234.194361 698.256783 230.961436 703.055043 229.862818 765.10728 215.656825 827.3011 202.082735 889.369072 187.95278 950.356779 174.066671 1011.147831 159.317925 1072.237796 145.874935 1087.146488 142.594813 1103.135437 144.288625 1118.109672 141.19991 1129.032925 138.94499 1138.88115 129.466463 1149.610378 128.677241 1178.216385 126.563909 1203.613074 113.126162 1231.519011 108.592726 1260.97193 103.807577 1289.824414 95.393581 1318.996779 88.825472 1331.157614 86.085483 1343.751073 83.358603 1352.597701 95.986152 1356.522835 101.584121 1359.635149 107.756308 1364.748044 116.435126 1314.583954 124.329966 1271.150537 142.778353 1224.641512 142.736401 1224.554984 141.367717 1224.468456 139.99379 1224.381928 138.627728 1221.846457 141.863275 1219.709527 147.432402 1216.712586 147.946314 1194.719256 151.719371 1172.419151 153.769774 1150.509718 157.909911 1142.106214 159.493599 1134.830167 166.70672 1126.416171 168.657487 1015.369255 194.389788 904.277764 219.983124 792.937181 244.425403 783.120415 246.580686 768.143555 243.780391 761.546604 237.24899 753.845792 229.613728 749.220585 231.200038 741.525017 233.308125 733.973659 235.376883 726.029001 236.485988 718.194467 236.926484 707.095543 237.553142 706.256504 242.755189 710.2131 251.544131 722.754124 253.26154 735.913938 237.448262 750.953726 254.57254 742.114966 256.622943 736.37541 257.983761 730.620121 259.292139 611.778001 286.369526 492.985698 313.688137 373.988879 340.068073 363.833875 342.325614 349.197874 342.197136 342.000486 336.460202 323.696309 321.86091 308.045595 337.168141 291.380166 337.123567 289.783369 337.120946 288.165596 343.744116 286.311842 347.834435 300.635824 350.847112 312.264392 335.851898 326.33404 349.599041 228.279131 372.381593 132.686278 394.59255 35.963343 417.065706 37.237635 424.784872 37.830207 430.243875 39.05468 435.558668 53.255429 497.146811 67.810147 558.653672 81.536314 620.349316 83.573608 629.510582 81.803758 639.521376 81.79327 651.986361 92.721763 659.309605 97.942164 672.555946 101.227529 709.518271 96.209023 711.710262 90.826058 714.064818 85.440471 716.427239 85.285773 717.533723 85.131075 718.632341 84.981621 719.73358 91.476314 721.076044 97.968384 722.42113 105.115954 723.897316 117.0041 775.068255 128.892244 826.690182 141.01637 878.259665 149.008223 912.238151 157.034164 946.216645 166.03811 979.935555 166.861418 983.005917 175.532369 986.702935 179.58598 985.79048 267.661561 965.931457 355.524759 945.115404 443.58723 925.180337 556.97297 899.518834 670.479322 874.392214 783.993541 849.323276 790.443662 847.89953 797.832452 850.450739 804.138362 848.756925 814.933134 845.849127 824.915086 839.732003 835.759671 837.227993 1008.974194 797.245125 1182.277868 757.673911 1355.534336 717.887693 1422.536909 702.501801 1489.47393 686.80389 1555.739719 671.404888 1563.086564 684.271039 1581.306841 686.219184 1585.079895 675.230385 1588.866064 664.212744 1596.302052 664.15506 1603.976641 662.374722 1680.929705 644.482198 1757.924714 626.752239 1834.90137 608.972461 1839.738959 607.852868 1844.573924 606.72803 1851.899794 605.021108 1840.470496 555.835023 1829.389926 508.17494 1818.325094 460.50437 1807.357267 413.229721 1795.791628 366.080929 1785.631382 318.630606 1775.465889 271.140954 1768.145266 223.00629 1756.944085 175.778837 1745.973642 129.492682 1731.678499 83.993127 1719.845415 41.72912 1708.798937 36.002673 1699.493463 30.682637 1689.771087 26.2803 1680.984765 22.294861 1672.235158 12.766515 1662.069665 24.901128 1660.698356 26.532012 1655.44125 24.901128 1651.985455 24.783138 1651.843868 26.261946 1651.704895 27.740753 1651.568553 29.222183 1660.721955 29.924879 1669.875358 30.624953 1679.83371 31.385332 1678.614481 43.331161 1673.089922 48.14253 1659.995664 46.446097 1654.510434 45.735535 1648.485085 51.587837 1642.375822 52.822799 1608.423558 59.695059 1574.329698 65.896088 1540.369566 72.752616 1534.084632 74.021664 1528.373918 78.303389 1522.086361 79.370542 1498.299581 83.416288 1474.389567 86.717385 1450.233092 90.335744 1450.2226 90.406538 1449.884365 93.177991 1449.540884 95.946823 1447.081448 95.364739 1443.683336 95.595474 1442.325142 94.043251 1435.594468 86.345061 1429.406547 78.172289 1420.848341 67.429958 1455.340741 59.417127 1488.335982 51.34137 1521.522633 44.143981 1561.405865 35.491383 1601.496229 27.787949 1641.403061 19.211389 1650.582686 17.237024 1659.172352 12.365349 1668.380814 10.645317 1680.287311 8.424484 1694.907581-0.571596 1701.328857 19.478833 1701.454714 19.882621 1705.364118 19.072423 1709.234184 18.626683 1706.507311 13.348599 1704.370381 9.208462 1700.767752 2.233943 1711.788016 1.76985 1721.523499 1.358196 1732.071802 0.912456 1730.828973 7.089886 1729.953225 11.450271 1729.080099 15.813278 1731.476606 17.129522 1733.873113 18.448387 1736.272242 19.767253 1736.854331 14.761856 1737.444281 9.75646 1738.251855 2.863223 1743.708231 7.074154 1746.914942 9.549322 1749.990542 11.924853 1748.734606 14.122089 1748.38064 15.61925 1747.683186 15.80279 1744.969413 16.526462 1742.153389 16.830614 1739.368826 17.289464 1740.784703 19.782985 1741.872837 22.559682 1743.692501 24.714966 1747.431471 29.143523 1753.934029 32.65438 1755.158504 37.570629 1765.761875 80.256778 1775.444913 123.171042 1785.426865 166.135123 1780.602384 168.738769 1776.540908 170.93076 1769.784021 174.580583 1794.357398 182.33908 1793.03591 203.488126 1797.22062 220.143066 1820.684895 313.462645 1843.01646 407.068023 1865.353271 500.668156 1873.19567 533.519186 1880.065308 566.606196 1887.168307 599.630278 1891.995412 622.100812 1889.690671 626.004969 1867.589837 631.935931 1810.619038 647.235298 1753.902568 663.664746 1696.506998 677.162798 1594.655437 701.114763 1492.360751 723.157911 1390.281074 746.14498 1336.650697 758.221909 1283.154046 770.909764 1229.473855 782.771689 1189.821361 791.529165 1149.8752 798.938939 1110.241052 807.785567 1072.602254 816.178586 1035.217786 825.688576 997.694354 834.611239 977.227028 839.477665 956.70988 844.15269 934.687712 849.270839ZM570.739656 595.135524 528.213524 410.934611 187.441835 489.607955 194.883909 521.843115 502.038931 450.93079 529.787232 571.121886 274.208465 630.126894 258.473796 561.972556 225.317632 569.62726 281.13318 811.39096C289.851037 849.152142 312.736372 864.240624 350.037057 855.629084L599.629294 798.006177C618.757759 792.61993 632.784866 784.045999 640.683294 772.036513 648.971151 757.511886 648.932355 721.627357 640.354277 663.46192L605.78018 660.772943C614.711852 712.066086 615.529504 742.920331 608.233134 753.335679 602.601384 760.456436 594.02923 765.345757 582.977175 767.897324L351.805029 821.267621C330.621924 826.158127 317.585119 818.011821 312.907244 797.749728L281.544223 661.901551 570.739656 595.135524ZM843.648016 361.878129 850.983771 393.652787 971.635373 365.798171 981.735329 409.545888 876.740805 433.785783 906.828044 564.107929 1009.980558 540.293296C1014.659616 573.166347 1014.272559 600.903392 1009.279882 623.398114 980.83328 611.53374 953.944978 595.914273 928.402353 575.618709L907.114709 598.965139C934.570417 621.244268 964.39912 639.095172 996.034001 652.163664 979.528767 677.316269 947.967929 698.183983 902.166166 714.093672L923.458544 741.191047C975.069452 721.02993 1010.384794 695.415045 1029.40457 664.346392 1084.809366 681.628108 1145.172181 684.668903 1210.599337 673.929277L1211.552626 640.240944C1150.482621 650.944736 1093.768578 649.001743 1041.871006 634.30565 1048.988798 608.410022 1049.481586 574.828004 1043.597217 532.532276L1153.196765 507.229228 1123.109526 376.907082 1015.351989 401.784869 1005.252033 358.037152 1131.89016 328.800436 1124.554405 297.025779 997.916278 326.262495 987.072118 279.291262 953.455451 287.052281 964.299611 334.023514 843.648016 361.878129ZM1114.972113 484.526022 1038.068232 502.280682C1037.217705 498.596664 1036.827687 494.80633 1035.977169 491.122311L1022.15617 431.257015 1098.59955 413.60867 1114.972113 484.526022ZM1004.451564 510.041701 931.231705 526.945838 914.859142 456.028487 988.53951 439.018034 1002.360501 498.883331C1003.21102 502.567349 1003.601046 506.357683 1004.451564 510.041701L1004.451564 510.041701ZM786.911766 500.603926 846.235719 757.5642 879.391886 749.909496 807.841666 439.99146C817.544491 404.283135 823.952731 366.910191 827.172691 328.33313L792.562759 321.287002C788.177479 398.936867 768.523953 471.380837 733.602187 538.618909L752.734206 571.065515C765.874364 548.144939 776.959883 524.728619 786.911766 500.603926L786.911766 500.603926ZM1347.755772 365.302321 1464.723346 338.298227 1483.328528 418.886127 1366.360954 445.89022 1347.755772 365.302321ZM1371.535754 476.708632 1490.345346 449.279277 1521.495733 584.206446 1555.572901 576.339112 1524.422514 441.411943 1649.679132 412.494173 1668.177999 492.62157C1672.643245 511.962667 1666.12632 523.653206 1649.548241 527.480557 1633.891163 531.095279 1616.639945 534.107941 1598.007225 537.43955L1614.305154 568.11522 1667.262921 555.888958C1699.498079 548.446885 1711.894623 528.608269 1704.452553 496.373109L1624.822367 151.456899 1281.748165 230.661819 1332.779528 451.702915C1346.423721 515.004358 1343.240775 570.549522 1323.230696 618.338406L1353.767771 635.055675C1374.309431 589.569302 1380.078592 536.822393 1371.535754 476.708632L1371.535754 476.708632ZM1642.662321 382.101023 1517.405704 411.018792 1498.800514 330.430893 1624.057139 301.513123 1642.662321 382.101023ZM1616.934014 270.65947 1491.677389 299.57724 1473.391151 220.370847 1598.647776 191.453078 1616.934014 270.65947ZM1439.313983 228.238182 1457.600221 307.444574 1340.632639 334.448668 1322.346401 255.242275 1439.313983 228.238182Z" p-id="13525" fill="#9cd4d2"></path>
</svg>