<svg xmlns="http://www.w3.org/2000/svg" viewBox="0 0 30.21 30.33"><defs><style>.cls-1{fill:#ef858c;}</style></defs><title>user-order</title><g id="图层_2" data-name="图层 2"><g id="图层_1-2" data-name="图层 1"><g id="_编组_" data-name="&lt;编组&gt;"><path id="_复合路径_" data-name="&lt;复合路径&gt;" class="cls-1" d="M25,19.81h4.64V5.93A5.93,5.93,0,0,0,23.71,0H5.93A5.93,5.93,0,0,0,0,5.93V24.4a5.93,5.93,0,0,0,5.93,5.93H19V25.85A6,6,0,0,1,25,19.81ZM5.43,6.88H24.65V8.49H5.43Zm0,7.32H24.65v1.61H5.43Zm8.25,8.93H5.43V21.52h8.25Z"/><polygon id="_路径_" data-name="&lt;路径&gt;" class="cls-1" points="30.21 20.62 30.21 20.62 30.21 20.62 30.21 20.62"/><path id="_路径_2" data-name="&lt;路径&gt;" class="cls-1" d="M29.36,21.42H25a4.43,4.43,0,0,0-4.42,4.42v4.48h1c1.73,0,8-6.48,8-8v-.88Z"/></g></g></g></svg>