<svg xmlns="http://www.w3.org/2000/svg" viewBox="0 0 32.92 28.03"><defs><style>.cls-1{fill:#9dd5d3;}</style></defs><title>user-info</title><g id="图层_2" data-name="图层 2"><g id="图层_1-2" data-name="图层 1"><g id="_编组_" data-name="&lt;编组&gt;"><g id="_编组_2" data-name="&lt;编组&gt;"><g id="_编组_3" data-name="&lt;编组&gt;"><polygon id="_路径_" data-name="&lt;路径&gt;" class="cls-1" points="15.59 19.61 13.24 25.6 19.49 24.07 28.74 15.97 24.84 11.52 15.59 19.61"/><rect id="_路径_2" data-name="&lt;路径&gt;" class="cls-1" x="27.34" y="8.49" width="4.14" height="5.92" transform="translate(-0.26 22.21) rotate(-41.2)"/></g><g id="_编组_4" data-name="&lt;编组&gt;"><path id="_路径_3" data-name="&lt;路径&gt;" class="cls-1" d="M19.76,25.16,13.51,26.7a1.13,1.13,0,0,1-1.32-1.51l2.35-6a1.13,1.13,0,0,1,.31-.44l3.75-3.28a10.76,10.76,0,0,0-6.33-1.88,10.36,10.36,0,0,0-8.66,4.12A17.31,17.31,0,0,0,0,28H24.55a16.14,16.14,0,0,0-1.12-5.91l-3.19,2.79A1.13,1.13,0,0,1,19.76,25.16Z"/><circle id="_路径_4" data-name="&lt;路径&gt;" class="cls-1" cx="12.27" cy="5.92" r="5.92"/></g></g></g></g></g></svg>