<svg xmlns="http://www.w3.org/2000/svg" viewBox="0 0 50.93 39.66"><defs><style>.cls-1{fill:none;stroke:#9fa0a0;stroke-linecap:round;stroke-linejoin:round;stroke-width:1.4px;}</style></defs><title>资源 2</title><g id="图层_2" data-name="图层 2"><g id="图层_1-2" data-name="图层 1"><g id="_编组_" data-name="&lt;编组&gt;"><g id="_编组_2" data-name="&lt;编组&gt;"><path id="_路径_" data-name="&lt;路径&gt;" class="cls-1" d="M48.73,30.17v4.26A4.41,4.41,0,0,1,44.45,39H.7V5.66H44.45a4.41,4.41,0,0,1,4.27,4.53v4.28"/><path id="_路径_2" data-name="&lt;路径&gt;" class="cls-1" d="M.7,8.87V3.72A2.94,2.94,0,0,1,3.55.7H40.16a2.94,2.94,0,0,1,2.85,3V5.66"/><path id="_路径_3" data-name="&lt;路径&gt;" class="cls-1" d="M33.07,15.25a6.88,6.88,0,0,0-6.69,7.06,6.88,6.88,0,0,0,6.69,7.06H50.23V15.25Z"/><ellipse id="_路径_4" data-name="&lt;路径&gt;" class="cls-1" cx="34.15" cy="21.97" rx="2.62" ry="2.76"/></g></g></g></g></svg>