<svg xmlns="http://www.w3.org/2000/svg" viewBox="0 0 36.31 25.92"><defs><style>.cls-1{fill:#f3bacf;}</style></defs><title>user-friendlink</title><g id="图层_2" data-name="图层 2"><g id="图层_1-2" data-name="图层 1"><g id="_编组_" data-name="&lt;编组&gt;"><path id="_路径_" data-name="&lt;路径&gt;" class="cls-1" d="M23.89,11.69a4.24,4.24,0,0,1,4-4.06,4.24,4.24,0,0,1,4,4.06,4.24,4.24,0,0,1-4,4.06A4.24,4.24,0,0,1,23.89,11.69Z"/><path id="_路径_2" data-name="&lt;路径&gt;" class="cls-1" d="M6.21,6a6.24,6.24,0,0,1,6-6,6.24,6.24,0,0,1,6,6,6.24,6.24,0,0,1-6,6A6.24,6.24,0,0,1,6.21,6Z"/><path id="_路径_3" data-name="&lt;路径&gt;" class="cls-1" d="M0,25.92C.48,19.1,5.76,13.72,12.18,13.72s11.7,5.39,12.18,12.21Z"/><path id="_路径_4" data-name="&lt;路径&gt;" class="cls-1" d="M26,25.92a16.12,16.12,0,0,0-2.1-7,7.92,7.92,0,0,1,4-1.1c4.35,0,7.94,3.57,8.41,8.14Z"/></g></g></g></svg>